# xmcd
#
# Track frame offsets: 
#        150
#        11845
#        22109
#        36532
#        46902
#        60392
#        74473
#        88005
#        102172
#        115194
#        127248
#        141863
#        159309
#        172749
#        187237
#        199581
#        213263
#        225487
#        236906
#        252635
#        264058
#        272889
#        287057
#        301255
#        315261
#        342309
#
# Disc length: 4795 seconds
#
# Revision: 0
# Processed by: cddbd v1.5.2PL0 Copyright (c) Steve Scherf et al.
# Submitted via: ExactAudioCopy v0.99pb3
#
DISCID=7c12b91a
DTITLE=varios - 100 clasicos del volero vol4
DYEAR=1900
DGENRE=Ballad
TTITLE0=te quiero dijiste
TTITLE1=cuando vuelva a tu lado
TTITLE2=dos cruces
TTITLE3=sabor a mi
TTITLE4=angelitos negros
TTITLE5=nosotros
TTITLE6=poema tropical
TTITLE7=una aventura mas
TTITLE8=otra primavera
TTITLE9=aquellos ojos verdes
TTITLE10=corazon de Dios
TTITLE11=a donde va nuestro amor
TTITLE12=punto final
TTITLE13=encadenados
TTITLE14=poquita fe
TTITLE15=mucho corazon
TTITLE16=como quisiera decirte
TTITLE17=en un rinconcito
TTITLE18=donde estas corazon
TTITLE19=nocturnal
TTITLE20=contigo aprendi
TTITLE21=celos
TTITLE22=no me platiques
TTITLE23=desesperadamente
TTITLE24=celos
TTITLE25=escucar todas juntas
EXTD=
EXTT0=
EXTT1=
EXTT2=
EXTT3=
EXTT4=
EXTT5=
EXTT6=
EXTT7=
EXTT8=
EXTT9=
EXTT10=
EXTT11=
EXTT12=
EXTT13=
EXTT14=
EXTT15=
EXTT16=
EXTT17=
EXTT18=
EXTT19=
EXTT20=
EXTT21=
EXTT22=
EXTT23=
EXTT24=
EXTT25=
PLAYORDER=
